<mxfile host="app.diagrams.net" agent="Mozilla/5.0 (Windows NT 10.0; Win64; x64; rv:137.0) Gecko/20100101 Firefox/137.0" version="26.2.14">
  <diagram name="Seite-1" id="O1QOM8eS4nTRcDV7-xnU">
    <mxGraphModel dx="2951" dy="1084" grid="1" gridSize="10" guides="1" tooltips="1" connect="1" arrows="1" fold="1" page="1" pageScale="1" pageWidth="827" pageHeight="1169" math="0" shadow="0">
      <root>
        <mxCell id="0" />
        <mxCell id="1" parent="0" />
        <mxCell id="fdtqvStkahgKg_YvVe37-16" value="" style="edgeStyle=orthogonalEdgeStyle;rounded=0;orthogonalLoop=1;jettySize=auto;html=1;" parent="1" source="fdtqvStkahgKg_YvVe37-1" target="fdtqvStkahgKg_YvVe37-14" edge="1">
          <mxGeometry relative="1" as="geometry" />
        </mxCell>
        <mxCell id="fdtqvStkahgKg_YvVe37-1" value="" style="verticalLabelPosition=bottom;verticalAlign=top;html=1;shape=mxgraph.flowchart.on-page_reference;fillColor=#000000;" parent="1" vertex="1">
          <mxGeometry x="50" y="200" width="60" height="60" as="geometry" />
        </mxCell>
        <mxCell id="fdtqvStkahgKg_YvVe37-3" value="&lt;font style=&quot;font-size: 25px;&quot;&gt;User-Interface&lt;/font&gt;" style="text;html=1;align=center;verticalAlign=middle;resizable=0;points=[];autosize=1;strokeColor=none;fillColor=none;" parent="1" vertex="1">
          <mxGeometry x="30" y="13" width="180" height="40" as="geometry" />
        </mxCell>
        <mxCell id="fdtqvStkahgKg_YvVe37-12" style="edgeStyle=orthogonalEdgeStyle;rounded=0;orthogonalLoop=1;jettySize=auto;html=1;entryX=0;entryY=0.5;entryDx=0;entryDy=0;" parent="1" source="fdtqvStkahgKg_YvVe37-4" target="fdtqvStkahgKg_YvVe37-11" edge="1">
          <mxGeometry relative="1" as="geometry" />
        </mxCell>
        <mxCell id="fdtqvStkahgKg_YvVe37-4" value="Speisekarte anzeigen" style="rounded=1;whiteSpace=wrap;html=1;absoluteArcSize=1;arcSize=14;strokeWidth=2;" parent="1" vertex="1">
          <mxGeometry x="340" y="180" width="100" height="100" as="geometry" />
        </mxCell>
        <mxCell id="l0H3OUS4enNo8auwdZaU-62" style="edgeStyle=orthogonalEdgeStyle;rounded=0;orthogonalLoop=1;jettySize=auto;html=1;exitX=1;exitY=0.5;exitDx=0;exitDy=0;entryX=0;entryY=0.5;entryDx=0;entryDy=0;" edge="1" parent="1" source="fdtqvStkahgKg_YvVe37-6" target="fdtqvStkahgKg_YvVe37-56">
          <mxGeometry relative="1" as="geometry" />
        </mxCell>
        <mxCell id="fdtqvStkahgKg_YvVe37-6" value="ausgewählten Artikel anzeigen" style="rounded=1;whiteSpace=wrap;html=1;absoluteArcSize=1;arcSize=14;strokeWidth=2;" parent="1" vertex="1">
          <mxGeometry x="750" y="180" width="100" height="100" as="geometry" />
        </mxCell>
        <mxCell id="l0H3OUS4enNo8auwdZaU-56" style="edgeStyle=orthogonalEdgeStyle;rounded=0;orthogonalLoop=1;jettySize=auto;html=1;exitX=1;exitY=0.75;exitDx=0;exitDy=0;entryX=0.5;entryY=0;entryDx=0;entryDy=0;" edge="1" parent="1" source="fdtqvStkahgKg_YvVe37-9" target="fdtqvStkahgKg_YvVe37-44">
          <mxGeometry relative="1" as="geometry" />
        </mxCell>
        <mxCell id="l0H3OUS4enNo8auwdZaU-57" style="edgeStyle=orthogonalEdgeStyle;rounded=0;orthogonalLoop=1;jettySize=auto;html=1;exitX=1;exitY=0.25;exitDx=0;exitDy=0;entryX=0.5;entryY=0;entryDx=0;entryDy=0;" edge="1" parent="1" source="fdtqvStkahgKg_YvVe37-9" target="fdtqvStkahgKg_YvVe37-35">
          <mxGeometry relative="1" as="geometry" />
        </mxCell>
        <mxCell id="fdtqvStkahgKg_YvVe37-9" value="" style="rounded=0;whiteSpace=wrap;html=1;fillColor=#000000;rotation=90;" parent="1" vertex="1">
          <mxGeometry x="540" y="290" width="20" height="140" as="geometry" />
        </mxCell>
        <mxCell id="fdtqvStkahgKg_YvVe37-13" style="edgeStyle=orthogonalEdgeStyle;rounded=0;orthogonalLoop=1;jettySize=auto;html=1;entryX=0;entryY=0.5;entryDx=0;entryDy=0;" parent="1" source="fdtqvStkahgKg_YvVe37-11" target="fdtqvStkahgKg_YvVe37-6" edge="1">
          <mxGeometry relative="1" as="geometry" />
        </mxCell>
        <mxCell id="fdtqvStkahgKg_YvVe37-21" value="[Artikel angeklickt]" style="edgeLabel;html=1;align=center;verticalAlign=middle;resizable=0;points=[];" parent="fdtqvStkahgKg_YvVe37-13" vertex="1" connectable="0">
          <mxGeometry x="0.0848" y="-1" relative="1" as="geometry">
            <mxPoint as="offset" />
          </mxGeometry>
        </mxCell>
        <mxCell id="fdtqvStkahgKg_YvVe37-29" style="edgeStyle=orthogonalEdgeStyle;rounded=0;orthogonalLoop=1;jettySize=auto;html=1;exitX=0.5;exitY=0;exitDx=0;exitDy=0;endArrow=none;startFill=0;" parent="1" source="fdtqvStkahgKg_YvVe37-11" edge="1">
          <mxGeometry relative="1" as="geometry">
            <mxPoint x="549.7826086956522" y="90" as="targetPoint" />
          </mxGeometry>
        </mxCell>
        <mxCell id="fdtqvStkahgKg_YvVe37-30" value="[keine Eingabe registriert]" style="edgeLabel;html=1;align=center;verticalAlign=middle;resizable=0;points=[];" parent="fdtqvStkahgKg_YvVe37-29" vertex="1" connectable="0">
          <mxGeometry x="0.0807" relative="1" as="geometry">
            <mxPoint as="offset" />
          </mxGeometry>
        </mxCell>
        <mxCell id="fdtqvStkahgKg_YvVe37-36" value="" style="edgeStyle=orthogonalEdgeStyle;rounded=0;orthogonalLoop=1;jettySize=auto;html=1;" parent="1" source="fdtqvStkahgKg_YvVe37-11" target="fdtqvStkahgKg_YvVe37-9" edge="1">
          <mxGeometry relative="1" as="geometry" />
        </mxCell>
        <mxCell id="fdtqvStkahgKg_YvVe37-55" value="&amp;nbsp;[Warenkorb angeklickt]" style="edgeLabel;html=1;align=center;verticalAlign=middle;resizable=0;points=[];" parent="fdtqvStkahgKg_YvVe37-36" vertex="1" connectable="0">
          <mxGeometry x="-0.2744" y="-1" relative="1" as="geometry">
            <mxPoint x="1" y="-9" as="offset" />
          </mxGeometry>
        </mxCell>
        <mxCell id="fdtqvStkahgKg_YvVe37-11" value="" style="rhombus;whiteSpace=wrap;html=1;" parent="1" vertex="1">
          <mxGeometry x="510" y="190" width="80" height="80" as="geometry" />
        </mxCell>
        <mxCell id="fdtqvStkahgKg_YvVe37-17" value="" style="edgeStyle=orthogonalEdgeStyle;rounded=0;orthogonalLoop=1;jettySize=auto;html=1;" parent="1" source="fdtqvStkahgKg_YvVe37-14" target="fdtqvStkahgKg_YvVe37-4" edge="1">
          <mxGeometry relative="1" as="geometry" />
        </mxCell>
        <mxCell id="fdtqvStkahgKg_YvVe37-14" value="" style="rhombus;whiteSpace=wrap;html=1;" parent="1" vertex="1">
          <mxGeometry x="180" y="190" width="80" height="80" as="geometry" />
        </mxCell>
        <mxCell id="fdtqvStkahgKg_YvVe37-25" value="" style="edgeStyle=orthogonalEdgeStyle;rounded=0;orthogonalLoop=1;jettySize=auto;html=1;" parent="1" source="fdtqvStkahgKg_YvVe37-22" target="fdtqvStkahgKg_YvVe37-24" edge="1">
          <mxGeometry relative="1" as="geometry" />
        </mxCell>
        <mxCell id="fdtqvStkahgKg_YvVe37-22" value="Sonderwünsche abfragen" style="rounded=1;whiteSpace=wrap;html=1;absoluteArcSize=1;arcSize=14;strokeWidth=2;" parent="1" vertex="1">
          <mxGeometry x="1110" y="180" width="100" height="100" as="geometry" />
        </mxCell>
        <mxCell id="fdtqvStkahgKg_YvVe37-27" value="" style="edgeStyle=orthogonalEdgeStyle;rounded=0;orthogonalLoop=1;jettySize=auto;html=1;" parent="1" source="fdtqvStkahgKg_YvVe37-24" target="fdtqvStkahgKg_YvVe37-26" edge="1">
          <mxGeometry relative="1" as="geometry" />
        </mxCell>
        <mxCell id="fdtqvStkahgKg_YvVe37-24" value="Menge abfragen" style="rounded=1;whiteSpace=wrap;html=1;absoluteArcSize=1;arcSize=14;strokeWidth=2;" parent="1" vertex="1">
          <mxGeometry x="1290" y="180" width="100" height="100" as="geometry" />
        </mxCell>
        <mxCell id="fdtqvStkahgKg_YvVe37-28" style="edgeStyle=orthogonalEdgeStyle;rounded=0;orthogonalLoop=1;jettySize=auto;html=1;entryX=0.5;entryY=0;entryDx=0;entryDy=0;" parent="1" source="fdtqvStkahgKg_YvVe37-26" target="fdtqvStkahgKg_YvVe37-14" edge="1">
          <mxGeometry relative="1" as="geometry">
            <mxPoint x="960" y="80" as="targetPoint" />
            <Array as="points">
              <mxPoint x="1510" y="90" />
              <mxPoint x="220" y="90" />
            </Array>
          </mxGeometry>
        </mxCell>
        <mxCell id="fdtqvStkahgKg_YvVe37-26" value="Artikel in Warenkorb speichern" style="rounded=1;whiteSpace=wrap;html=1;absoluteArcSize=1;arcSize=14;strokeWidth=2;" parent="1" vertex="1">
          <mxGeometry x="1460" y="180" width="100" height="100" as="geometry" />
        </mxCell>
        <mxCell id="fdtqvStkahgKg_YvVe37-47" value="" style="edgeStyle=orthogonalEdgeStyle;rounded=0;orthogonalLoop=1;jettySize=auto;html=1;" parent="1" source="fdtqvStkahgKg_YvVe37-32" target="fdtqvStkahgKg_YvVe37-46" edge="1">
          <mxGeometry relative="1" as="geometry" />
        </mxCell>
        <mxCell id="fdtqvStkahgKg_YvVe37-32" value="Warenkorb anzeigen" style="rounded=1;whiteSpace=wrap;html=1;absoluteArcSize=1;arcSize=14;strokeWidth=2;" parent="1" vertex="1">
          <mxGeometry x="500" y="640" width="100" height="100" as="geometry" />
        </mxCell>
        <mxCell id="l0H3OUS4enNo8auwdZaU-59" style="edgeStyle=orthogonalEdgeStyle;rounded=0;orthogonalLoop=1;jettySize=auto;html=1;exitX=0.5;exitY=1;exitDx=0;exitDy=0;entryX=0;entryY=0.25;entryDx=0;entryDy=0;" edge="1" parent="1" source="fdtqvStkahgKg_YvVe37-35" target="fdtqvStkahgKg_YvVe37-43">
          <mxGeometry relative="1" as="geometry" />
        </mxCell>
        <mxCell id="fdtqvStkahgKg_YvVe37-35" value="Gesamtpreis berechnen" style="rounded=1;whiteSpace=wrap;html=1;absoluteArcSize=1;arcSize=14;strokeWidth=2;" parent="1" vertex="1">
          <mxGeometry x="560" y="420" width="100" height="100" as="geometry" />
        </mxCell>
        <mxCell id="fdtqvStkahgKg_YvVe37-45" value="" style="edgeStyle=orthogonalEdgeStyle;rounded=0;orthogonalLoop=1;jettySize=auto;html=1;" parent="1" source="fdtqvStkahgKg_YvVe37-43" target="fdtqvStkahgKg_YvVe37-32" edge="1">
          <mxGeometry relative="1" as="geometry" />
        </mxCell>
        <mxCell id="fdtqvStkahgKg_YvVe37-43" value="" style="rounded=0;whiteSpace=wrap;html=1;fillColor=#000000;rotation=90;" parent="1" vertex="1">
          <mxGeometry x="540" y="510" width="20" height="130" as="geometry" />
        </mxCell>
        <mxCell id="l0H3OUS4enNo8auwdZaU-58" style="edgeStyle=orthogonalEdgeStyle;rounded=0;orthogonalLoop=1;jettySize=auto;html=1;exitX=0.5;exitY=1;exitDx=0;exitDy=0;entryX=0;entryY=0.75;entryDx=0;entryDy=0;" edge="1" parent="1" source="fdtqvStkahgKg_YvVe37-44" target="fdtqvStkahgKg_YvVe37-43">
          <mxGeometry relative="1" as="geometry" />
        </mxCell>
        <mxCell id="fdtqvStkahgKg_YvVe37-44" value="&lt;div&gt;Warenkorb&lt;/div&gt;&lt;div&gt;laden&lt;/div&gt;" style="rounded=1;whiteSpace=wrap;html=1;absoluteArcSize=1;arcSize=14;strokeWidth=2;" parent="1" vertex="1">
          <mxGeometry x="440" y="420" width="100" height="100" as="geometry" />
        </mxCell>
        <mxCell id="l0H3OUS4enNo8auwdZaU-2" style="edgeStyle=orthogonalEdgeStyle;rounded=0;orthogonalLoop=1;jettySize=auto;html=1;exitX=0;exitY=0.5;exitDx=0;exitDy=0;entryX=0;entryY=0.5;entryDx=0;entryDy=0;" edge="1" parent="1" source="fdtqvStkahgKg_YvVe37-46" target="fdtqvStkahgKg_YvVe37-32">
          <mxGeometry relative="1" as="geometry">
            <mxPoint x="420" y="320" as="targetPoint" />
            <Array as="points">
              <mxPoint x="390" y="850" />
              <mxPoint x="390" y="690" />
            </Array>
          </mxGeometry>
        </mxCell>
        <mxCell id="l0H3OUS4enNo8auwdZaU-3" value="[keine Eingabe]" style="edgeLabel;html=1;align=center;verticalAlign=middle;resizable=0;points=[];" vertex="1" connectable="0" parent="l0H3OUS4enNo8auwdZaU-2">
          <mxGeometry x="-0.7015" relative="1" as="geometry">
            <mxPoint x="-1" as="offset" />
          </mxGeometry>
        </mxCell>
        <mxCell id="l0H3OUS4enNo8auwdZaU-5" style="edgeStyle=orthogonalEdgeStyle;rounded=0;orthogonalLoop=1;jettySize=auto;html=1;exitX=1;exitY=0.5;exitDx=0;exitDy=0;" edge="1" parent="1" source="fdtqvStkahgKg_YvVe37-46" target="l0H3OUS4enNo8auwdZaU-4">
          <mxGeometry relative="1" as="geometry" />
        </mxCell>
        <mxCell id="l0H3OUS4enNo8auwdZaU-33" value="[Artikelbedienfeld]" style="edgeLabel;html=1;align=center;verticalAlign=middle;resizable=0;points=[];" vertex="1" connectable="0" parent="l0H3OUS4enNo8auwdZaU-5">
          <mxGeometry x="-0.1152" y="1" relative="1" as="geometry">
            <mxPoint as="offset" />
          </mxGeometry>
        </mxCell>
        <mxCell id="l0H3OUS4enNo8auwdZaU-34" style="edgeStyle=orthogonalEdgeStyle;rounded=0;orthogonalLoop=1;jettySize=auto;html=1;" edge="1" parent="1" source="fdtqvStkahgKg_YvVe37-46">
          <mxGeometry relative="1" as="geometry">
            <mxPoint x="550" y="1030" as="targetPoint" />
          </mxGeometry>
        </mxCell>
        <mxCell id="l0H3OUS4enNo8auwdZaU-35" value="[Bestellen-Button]" style="edgeLabel;html=1;align=center;verticalAlign=middle;resizable=0;points=[];" vertex="1" connectable="0" parent="l0H3OUS4enNo8auwdZaU-34">
          <mxGeometry x="-0.2213" relative="1" as="geometry">
            <mxPoint as="offset" />
          </mxGeometry>
        </mxCell>
        <mxCell id="fdtqvStkahgKg_YvVe37-46" value="" style="rhombus;whiteSpace=wrap;html=1;" parent="1" vertex="1">
          <mxGeometry x="510" y="810" width="80" height="80" as="geometry" />
        </mxCell>
        <mxCell id="l0H3OUS4enNo8auwdZaU-28" style="edgeStyle=orthogonalEdgeStyle;rounded=0;orthogonalLoop=1;jettySize=auto;html=1;exitX=1;exitY=0.5;exitDx=0;exitDy=0;entryX=0.5;entryY=0;entryDx=0;entryDy=0;" edge="1" parent="1" source="fdtqvStkahgKg_YvVe37-50" target="l0H3OUS4enNo8auwdZaU-15">
          <mxGeometry relative="1" as="geometry">
            <mxPoint x="1070" y="730" as="targetPoint" />
          </mxGeometry>
        </mxCell>
        <mxCell id="fdtqvStkahgKg_YvVe37-50" value="&lt;div&gt;Menge anpassen&lt;/div&gt;&lt;div&gt;(&amp;gt;=1)&lt;/div&gt;" style="rounded=1;whiteSpace=wrap;html=1;absoluteArcSize=1;arcSize=14;strokeWidth=2;" parent="1" vertex="1">
          <mxGeometry x="890" y="680" width="100" height="100" as="geometry" />
        </mxCell>
        <mxCell id="fdtqvStkahgKg_YvVe37-51" value="Sonderwunsch anpassen" style="rounded=1;whiteSpace=wrap;html=1;absoluteArcSize=1;arcSize=14;strokeWidth=2;" parent="1" vertex="1">
          <mxGeometry x="960" y="800" width="100" height="100" as="geometry" />
        </mxCell>
        <mxCell id="fdtqvStkahgKg_YvVe37-57" style="edgeStyle=orthogonalEdgeStyle;rounded=0;orthogonalLoop=1;jettySize=auto;html=1;startArrow=none;startFill=0;endArrow=none;endFill=1;" parent="1" source="fdtqvStkahgKg_YvVe37-56" edge="1">
          <mxGeometry relative="1" as="geometry">
            <mxPoint x="930" y="90" as="targetPoint" />
          </mxGeometry>
        </mxCell>
        <mxCell id="fdtqvStkahgKg_YvVe37-58" value="[Vorgang abbrechen]" style="edgeLabel;html=1;align=center;verticalAlign=middle;resizable=0;points=[];" parent="fdtqvStkahgKg_YvVe37-57" vertex="1" connectable="0">
          <mxGeometry x="-0.0731" y="1" relative="1" as="geometry">
            <mxPoint as="offset" />
          </mxGeometry>
        </mxCell>
        <mxCell id="l0H3OUS4enNo8auwdZaU-63" style="edgeStyle=orthogonalEdgeStyle;rounded=0;orthogonalLoop=1;jettySize=auto;html=1;entryX=0;entryY=0.5;entryDx=0;entryDy=0;" edge="1" parent="1" source="fdtqvStkahgKg_YvVe37-56" target="fdtqvStkahgKg_YvVe37-22">
          <mxGeometry relative="1" as="geometry" />
        </mxCell>
        <mxCell id="fdtqvStkahgKg_YvVe37-56" value="" style="rhombus;whiteSpace=wrap;html=1;" parent="1" vertex="1">
          <mxGeometry x="890" y="190" width="80" height="80" as="geometry" />
        </mxCell>
        <mxCell id="l0H3OUS4enNo8auwdZaU-21" style="edgeStyle=orthogonalEdgeStyle;rounded=0;orthogonalLoop=1;jettySize=auto;html=1;exitX=1;exitY=0.5;exitDx=0;exitDy=0;" edge="1" parent="1" source="l0H3OUS4enNo8auwdZaU-1" target="l0H3OUS4enNo8auwdZaU-15">
          <mxGeometry relative="1" as="geometry" />
        </mxCell>
        <mxCell id="l0H3OUS4enNo8auwdZaU-1" value="Artikel löschen" style="rounded=1;whiteSpace=wrap;html=1;absoluteArcSize=1;arcSize=14;strokeWidth=2;" vertex="1" parent="1">
          <mxGeometry x="890" y="920" width="100" height="100" as="geometry" />
        </mxCell>
        <mxCell id="l0H3OUS4enNo8auwdZaU-7" style="edgeStyle=orthogonalEdgeStyle;rounded=0;orthogonalLoop=1;jettySize=auto;html=1;exitX=1;exitY=0.5;exitDx=0;exitDy=0;entryX=0;entryY=0.5;entryDx=0;entryDy=0;" edge="1" parent="1" source="l0H3OUS4enNo8auwdZaU-4" target="fdtqvStkahgKg_YvVe37-51">
          <mxGeometry relative="1" as="geometry" />
        </mxCell>
        <mxCell id="l0H3OUS4enNo8auwdZaU-12" value="[Sonderwunschbedienfeld]" style="edgeLabel;html=1;align=center;verticalAlign=middle;resizable=0;points=[];" vertex="1" connectable="0" parent="l0H3OUS4enNo8auwdZaU-7">
          <mxGeometry x="-0.169" y="-1" relative="1" as="geometry">
            <mxPoint as="offset" />
          </mxGeometry>
        </mxCell>
        <mxCell id="l0H3OUS4enNo8auwdZaU-8" style="edgeStyle=orthogonalEdgeStyle;rounded=0;orthogonalLoop=1;jettySize=auto;html=1;exitX=0.5;exitY=1;exitDx=0;exitDy=0;entryX=0;entryY=0.5;entryDx=0;entryDy=0;" edge="1" parent="1" source="l0H3OUS4enNo8auwdZaU-4" target="l0H3OUS4enNo8auwdZaU-1">
          <mxGeometry relative="1" as="geometry" />
        </mxCell>
        <mxCell id="l0H3OUS4enNo8auwdZaU-13" value="[Mülleimersymbol]" style="edgeLabel;html=1;align=center;verticalAlign=middle;resizable=0;points=[];" vertex="1" connectable="0" parent="l0H3OUS4enNo8auwdZaU-8">
          <mxGeometry x="0.2058" y="-1" relative="1" as="geometry">
            <mxPoint x="12" y="-1" as="offset" />
          </mxGeometry>
        </mxCell>
        <mxCell id="l0H3OUS4enNo8auwdZaU-9" style="edgeStyle=orthogonalEdgeStyle;rounded=0;orthogonalLoop=1;jettySize=auto;html=1;exitX=0.5;exitY=0;exitDx=0;exitDy=0;entryX=0;entryY=0.5;entryDx=0;entryDy=0;" edge="1" parent="1" source="l0H3OUS4enNo8auwdZaU-4" target="fdtqvStkahgKg_YvVe37-50">
          <mxGeometry relative="1" as="geometry" />
        </mxCell>
        <mxCell id="l0H3OUS4enNo8auwdZaU-10" value="[Mengenbedienfeld]" style="edgeLabel;html=1;align=center;verticalAlign=middle;resizable=0;points=[];" vertex="1" connectable="0" parent="l0H3OUS4enNo8auwdZaU-9">
          <mxGeometry x="-0.0134" y="-1" relative="1" as="geometry">
            <mxPoint x="36" y="-1" as="offset" />
          </mxGeometry>
        </mxCell>
        <mxCell id="l0H3OUS4enNo8auwdZaU-4" value="" style="rhombus;whiteSpace=wrap;html=1;" vertex="1" parent="1">
          <mxGeometry x="700" y="810" width="80" height="80" as="geometry" />
        </mxCell>
        <mxCell id="l0H3OUS4enNo8auwdZaU-22" value="" style="edgeStyle=orthogonalEdgeStyle;rounded=0;orthogonalLoop=1;jettySize=auto;html=1;" edge="1" parent="1" source="fdtqvStkahgKg_YvVe37-51" target="l0H3OUS4enNo8auwdZaU-15">
          <mxGeometry relative="1" as="geometry">
            <mxPoint x="1200" y="850" as="targetPoint" />
            <mxPoint x="1060" y="850" as="sourcePoint" />
          </mxGeometry>
        </mxCell>
        <mxCell id="l0H3OUS4enNo8auwdZaU-26" style="edgeStyle=orthogonalEdgeStyle;rounded=0;orthogonalLoop=1;jettySize=auto;html=1;" edge="1" parent="1" source="l0H3OUS4enNo8auwdZaU-15">
          <mxGeometry relative="1" as="geometry">
            <mxPoint x="550" y="330" as="targetPoint" />
            <Array as="points">
              <mxPoint x="1220" y="850" />
              <mxPoint x="1220" y="640" />
              <mxPoint x="740" y="640" />
              <mxPoint x="740" y="330" />
            </Array>
          </mxGeometry>
        </mxCell>
        <mxCell id="l0H3OUS4enNo8auwdZaU-15" value="" style="rhombus;whiteSpace=wrap;html=1;" vertex="1" parent="1">
          <mxGeometry x="1110" y="810" width="80" height="80" as="geometry" />
        </mxCell>
        <mxCell id="l0H3OUS4enNo8auwdZaU-39" style="edgeStyle=orthogonalEdgeStyle;rounded=0;orthogonalLoop=1;jettySize=auto;html=1;entryX=0.5;entryY=0;entryDx=0;entryDy=0;" edge="1" parent="1" source="l0H3OUS4enNo8auwdZaU-36" target="l0H3OUS4enNo8auwdZaU-38">
          <mxGeometry relative="1" as="geometry" />
        </mxCell>
        <mxCell id="l0H3OUS4enNo8auwdZaU-36" value="&lt;div&gt;Zusammenfassung&lt;/div&gt;&lt;div&gt;der Artikel im Warenkorb&lt;/div&gt;" style="rounded=1;whiteSpace=wrap;html=1;absoluteArcSize=1;arcSize=14;strokeWidth=2;" vertex="1" parent="1">
          <mxGeometry x="500" y="1030" width="100" height="100" as="geometry" />
        </mxCell>
        <mxCell id="l0H3OUS4enNo8auwdZaU-40" style="edgeStyle=orthogonalEdgeStyle;rounded=0;orthogonalLoop=1;jettySize=auto;html=1;exitX=0;exitY=0.5;exitDx=0;exitDy=0;endArrow=none;startFill=0;" edge="1" parent="1" source="l0H3OUS4enNo8auwdZaU-38">
          <mxGeometry relative="1" as="geometry">
            <mxPoint x="410" y="850" as="targetPoint" />
            <Array as="points">
              <mxPoint x="390" y="1260" />
              <mxPoint x="390" y="850" />
            </Array>
          </mxGeometry>
        </mxCell>
        <mxCell id="l0H3OUS4enNo8auwdZaU-41" value="&lt;div&gt;[Abbrechen-&lt;/div&gt;&lt;div&gt;Button]&lt;/div&gt;" style="edgeLabel;html=1;align=center;verticalAlign=middle;resizable=0;points=[];" vertex="1" connectable="0" parent="l0H3OUS4enNo8auwdZaU-40">
          <mxGeometry x="-0.7885" y="1" relative="1" as="geometry">
            <mxPoint x="13" y="-1" as="offset" />
          </mxGeometry>
        </mxCell>
        <mxCell id="l0H3OUS4enNo8auwdZaU-42" style="edgeStyle=orthogonalEdgeStyle;rounded=0;orthogonalLoop=1;jettySize=auto;html=1;entryX=0;entryY=0.5;entryDx=0;entryDy=0;" edge="1" parent="1" source="l0H3OUS4enNo8auwdZaU-38" target="l0H3OUS4enNo8auwdZaU-45">
          <mxGeometry relative="1" as="geometry">
            <mxPoint x="750" y="1260" as="targetPoint" />
          </mxGeometry>
        </mxCell>
        <mxCell id="l0H3OUS4enNo8auwdZaU-44" value="&lt;div&gt;[zahlungspflichtig-&lt;/div&gt;&lt;div&gt;Bestellen-Button]&lt;/div&gt;" style="edgeLabel;html=1;align=center;verticalAlign=middle;resizable=0;points=[];" vertex="1" connectable="0" parent="l0H3OUS4enNo8auwdZaU-42">
          <mxGeometry x="-0.1111" y="2" relative="1" as="geometry">
            <mxPoint as="offset" />
          </mxGeometry>
        </mxCell>
        <mxCell id="l0H3OUS4enNo8auwdZaU-38" value="" style="rhombus;whiteSpace=wrap;html=1;" vertex="1" parent="1">
          <mxGeometry x="510" y="1220" width="80" height="80" as="geometry" />
        </mxCell>
        <mxCell id="l0H3OUS4enNo8auwdZaU-69" style="edgeStyle=orthogonalEdgeStyle;rounded=0;orthogonalLoop=1;jettySize=auto;html=1;exitX=1;exitY=0.5;exitDx=0;exitDy=0;entryX=0;entryY=0.5;entryDx=0;entryDy=0;" edge="1" parent="1" source="l0H3OUS4enNo8auwdZaU-45" target="l0H3OUS4enNo8auwdZaU-67">
          <mxGeometry relative="1" as="geometry" />
        </mxCell>
        <mxCell id="l0H3OUS4enNo8auwdZaU-45" value="Bestellungs-konfirmation&lt;div&gt;&lt;br&gt;&lt;/div&gt;" style="rounded=1;whiteSpace=wrap;html=1;absoluteArcSize=1;arcSize=14;strokeWidth=2;" vertex="1" parent="1">
          <mxGeometry x="770" y="1210" width="100" height="100" as="geometry" />
        </mxCell>
        <mxCell id="l0H3OUS4enNo8auwdZaU-51" style="edgeStyle=orthogonalEdgeStyle;rounded=0;orthogonalLoop=1;jettySize=auto;html=1;exitX=0.5;exitY=1;exitDx=0;exitDy=0;entryX=0.5;entryY=1;entryDx=0;entryDy=0;" edge="1" parent="1" source="l0H3OUS4enNo8auwdZaU-49" target="fdtqvStkahgKg_YvVe37-14">
          <mxGeometry relative="1" as="geometry">
            <mxPoint x="220" y="930" as="targetPoint" />
            <Array as="points">
              <mxPoint x="1150" y="1345" />
              <mxPoint x="220" y="1345" />
            </Array>
          </mxGeometry>
        </mxCell>
        <mxCell id="l0H3OUS4enNo8auwdZaU-53" value="[&quot;Weiter&quot;-Button]" style="edgeLabel;html=1;align=center;verticalAlign=middle;resizable=0;points=[];" vertex="1" connectable="0" parent="l0H3OUS4enNo8auwdZaU-51">
          <mxGeometry x="0.1709" y="2" relative="1" as="geometry">
            <mxPoint x="932" y="210" as="offset" />
          </mxGeometry>
        </mxCell>
        <mxCell id="l0H3OUS4enNo8auwdZaU-49" value="" style="rhombus;whiteSpace=wrap;html=1;" vertex="1" parent="1">
          <mxGeometry x="1110" y="1220" width="80" height="80" as="geometry" />
        </mxCell>
        <mxCell id="l0H3OUS4enNo8auwdZaU-50" style="edgeStyle=orthogonalEdgeStyle;rounded=0;orthogonalLoop=1;jettySize=auto;html=1;exitX=1;exitY=0.5;exitDx=0;exitDy=0;entryX=0.5;entryY=0;entryDx=0;entryDy=0;" edge="1" parent="1" source="l0H3OUS4enNo8auwdZaU-49" target="l0H3OUS4enNo8auwdZaU-49">
          <mxGeometry relative="1" as="geometry">
            <Array as="points">
              <mxPoint x="1310" y="1260" />
              <mxPoint x="1310" y="1150" />
              <mxPoint x="1150" y="1150" />
            </Array>
          </mxGeometry>
        </mxCell>
        <mxCell id="l0H3OUS4enNo8auwdZaU-52" value="[keine Eingabe]" style="edgeLabel;html=1;align=center;verticalAlign=middle;resizable=0;points=[];" vertex="1" connectable="0" parent="l0H3OUS4enNo8auwdZaU-50">
          <mxGeometry x="-0.8306" y="3" relative="1" as="geometry">
            <mxPoint x="18" y="1" as="offset" />
          </mxGeometry>
        </mxCell>
        <mxCell id="l0H3OUS4enNo8auwdZaU-64" value="[&quot;Weiter&quot;-Button]" style="edgeLabel;html=1;align=center;verticalAlign=middle;resizable=0;points=[];" vertex="1" connectable="0" parent="1">
          <mxGeometry x="919.9979759739656" y="719.996027285341" as="geometry">
            <mxPoint x="110" y="-499" as="offset" />
          </mxGeometry>
        </mxCell>
        <mxCell id="l0H3OUS4enNo8auwdZaU-68" style="edgeStyle=orthogonalEdgeStyle;rounded=0;orthogonalLoop=1;jettySize=auto;html=1;exitX=1;exitY=0.75;exitDx=0;exitDy=0;entryX=0;entryY=0.5;entryDx=0;entryDy=0;" edge="1" parent="1" source="l0H3OUS4enNo8auwdZaU-67" target="l0H3OUS4enNo8auwdZaU-49">
          <mxGeometry relative="1" as="geometry" />
        </mxCell>
        <mxCell id="l0H3OUS4enNo8auwdZaU-70" style="edgeStyle=orthogonalEdgeStyle;rounded=0;orthogonalLoop=1;jettySize=auto;html=1;exitX=1;exitY=0.25;exitDx=0;exitDy=0;entryX=0;entryY=0.5;entryDx=0;entryDy=0;" edge="1" parent="1" source="l0H3OUS4enNo8auwdZaU-67" target="l0H3OUS4enNo8auwdZaU-71">
          <mxGeometry relative="1" as="geometry">
            <mxPoint x="1080" y="1100" as="targetPoint" />
          </mxGeometry>
        </mxCell>
        <mxCell id="l0H3OUS4enNo8auwdZaU-67" value="" style="rounded=0;whiteSpace=wrap;html=1;fillColor=#000000;rotation=0;" vertex="1" parent="1">
          <mxGeometry x="970" y="1150" width="20" height="130" as="geometry" />
        </mxCell>
        <mxCell id="l0H3OUS4enNo8auwdZaU-72" style="edgeStyle=orthogonalEdgeStyle;rounded=0;orthogonalLoop=1;jettySize=auto;html=1;entryX=0;entryY=0.5;entryDx=0;entryDy=0;entryPerimeter=0;" edge="1" parent="1" source="l0H3OUS4enNo8auwdZaU-71" target="l0H3OUS4enNo8auwdZaU-73">
          <mxGeometry relative="1" as="geometry">
            <mxPoint x="1370" y="1070" as="targetPoint" />
          </mxGeometry>
        </mxCell>
        <mxCell id="l0H3OUS4enNo8auwdZaU-71" value="&lt;div&gt;Senden der Bestellung an&lt;/div&gt;&lt;div&gt;Mitarbeiter-interface&lt;/div&gt;" style="rounded=1;whiteSpace=wrap;html=1;absoluteArcSize=1;arcSize=14;strokeWidth=2;" vertex="1" parent="1">
          <mxGeometry x="1150" y="1020" width="100" height="100" as="geometry" />
        </mxCell>
        <mxCell id="l0H3OUS4enNo8auwdZaU-73" value="" style="verticalLabelPosition=bottom;verticalAlign=top;html=1;shape=mxgraph.flowchart.or;" vertex="1" parent="1">
          <mxGeometry x="1390" y="1035" width="70" height="70" as="geometry" />
        </mxCell>
      </root>
    </mxGraphModel>
  </diagram>
</mxfile>
